<svg version="1.1" xmlns="http://www.w3.org/2000/svg" viewBox="0 0 544 528" width="544" height="528">
  <!-- svg-source:excalidraw -->
  
  <defs>
    <style>
      @font-face {
        font-family: "Virgil";
        src: url("https://excalidraw.com/Virgil.woff2");
      }
      @font-face {
        font-family: "Cascadia";
        src: url("https://excalidraw.com/Cascadia.woff2");
      }
    </style>
  </defs>
  <rect x="0" y="0" width="544" height="528" fill="#ffffff"></rect><g stroke-linecap="round" transform="translate(10 10) rotate(0 262 254)"><path d="M0.23 -0.08 C154.59 -1.77, 309.43 -1.57, 523.67 0.06 M0.17 0.07 C196.99 -1.9, 394.4 -1.49, 523.88 0.26 M524.77 -0.5 C523.18 134.28, 523.72 268.41, 524.03 508.61 M523.99 0.26 C524.23 110.36, 524.1 220.51, 524.31 507.67 M523.58 507.32 C332.08 508.69, 139.9 509.06, -0.11 508.4 M523.95 508.1 C351.77 506.48, 178.77 507.17, 0.14 507.62 M0.55 508.21 C1.22 396.96, 1.38 285.91, -0.75 0.62 M0 508.16 C-1.78 370.7, -1.68 233.9, -0.37 -0.24" stroke="#000000" stroke-width="1" fill="none"></path></g><g stroke-linecap="round" transform="translate(59 438) rotate(0 205.5 28)"><path d="M0.37 -0.15 C128.2 0.58, 254.96 -0.36, 410.85 0.27 M0.49 0.2 C161.88 -0.38, 324.27 0.31, 411.38 0.14 M411.6 -1.87 C412.64 11.06, 412.7 24.64, 411.02 56.8 M410.5 -0.92 C409.91 15.75, 411.22 29.42, 411.02 55.77 M410.71 56.56 C313.82 54.61, 215.05 54.76, 0.63 55.59 M410.7 55.76 C308.2 55.69, 205.09 54.83, -0.14 56.29 M0.77 56.26 C-0.37 40.95, 0.12 26.29, -0.49 -0.43 M0.51 56.2 C0.91 45.25, -0.27 33.34, -0.71 0.9" stroke="#000000" stroke-width="1" fill="none"></path></g><g stroke-linecap="round" transform="translate(61 43) rotate(0 41.5 41.5)"><path d="M35.91 0.01 C43.53 -1.35, 54.6 2.03, 61.81 5.92 C69.03 9.82, 75.62 16.29, 79.18 23.35 C82.74 30.4, 84.54 40.55, 83.2 48.26 C81.87 55.98, 76.75 64.03, 71.18 69.63 C65.61 75.23, 57.58 80.3, 49.77 81.87 C41.95 83.45, 31.49 82.08, 24.3 79.07 C17.12 76.05, 10.59 70.63, 6.67 63.78 C2.75 56.93, 0.41 45.91, 0.78 37.96 C1.15 30.01, 4.1 22.21, 8.89 16.05 C13.68 9.9, 24.03 3.64, 29.53 1.03 C35.03 -1.58, 39.16 0.44, 41.89 0.38 C44.62 0.33, 46.04 0.09, 45.91 0.7 M35.51 -0.16 C42.98 -1.36, 54.06 1.81, 61.32 5.88 C68.57 9.96, 75.33 17.42, 79.03 24.31 C82.72 31.2, 84.71 39.74, 83.48 47.22 C82.24 54.7, 77.05 63.3, 71.61 69.18 C66.18 75.06, 58.7 80.98, 50.86 82.52 C43.02 84.07, 32.05 81.92, 24.56 78.46 C17.08 75, 10.25 68.26, 5.94 61.77 C1.64 55.28, -1.71 47.47, -1.26 39.53 C-0.81 31.59, 3.54 20.36, 8.64 14.12 C13.75 7.89, 24.69 4.41, 29.35 2.12 C34.01 -0.18, 35.47 0.66, 36.6 0.35 C37.74 0.05, 35.8 -0.3, 36.17 0.29" stroke="#000000" stroke-width="1" fill="none"></path></g><g stroke-linecap="round" transform="translate(62 145) rotate(0 41.5 41.5)"><path d="M47.64 0.59 C55.12 1.1, 63.26 5.48, 69.06 10.93 C74.87 16.37, 80.52 25.57, 82.45 33.25 C84.38 40.92, 83.75 49.68, 80.64 56.97 C77.52 64.27, 70.58 72.79, 63.75 77.01 C56.93 81.23, 47.53 82.88, 39.68 82.29 C31.84 81.71, 23.14 78.35, 16.7 73.49 C10.25 68.63, 3.38 60.42, 1.01 53.12 C-1.36 45.81, -0.26 37.16, 2.48 29.65 C5.23 22.14, 11.28 13.04, 17.48 8.06 C23.68 3.08, 34.22 0.88, 39.67 -0.23 C45.12 -1.34, 48.15 0.93, 50.18 1.38 C52.21 1.84, 52.01 1.77, 51.85 2.5 M52 2.32 C59.77 3.38, 69.32 7.76, 74.69 13.87 C80.07 19.97, 83.76 31, 84.24 38.98 C84.73 46.96, 81.76 55.28, 77.58 61.73 C73.4 68.18, 66.56 74.1, 59.15 77.68 C51.73 81.26, 41 84.51, 33.08 83.21 C25.17 81.91, 16.86 75.42, 11.66 69.87 C6.47 64.32, 3.1 57.74, 1.92 49.9 C0.75 42.07, 1.51 30.04, 4.63 22.86 C7.75 15.68, 14.04 10.58, 20.65 6.8 C27.26 3.02, 39.19 0.97, 44.28 0.18 C49.37 -0.6, 49.98 1.76, 51.2 2.1 C52.42 2.44, 51.35 1.89, 51.59 2.22" stroke="#000000" stroke-width="1" fill="none"></path></g><g stroke-linecap="round" transform="translate(60 244) rotate(0 41.5 41.5)"><path d="M61.95 5.4 C69.01 8.25, 75.22 15, 78.75 21.86 C82.28 28.73, 84.23 38.63, 83.15 46.6 C82.07 54.56, 77.92 63.66, 72.27 69.67 C66.63 75.68, 57.14 80.88, 49.3 82.65 C41.46 84.42, 32.57 83.59, 25.26 80.31 C17.95 77.04, 9.76 69.88, 5.44 63 C1.13 56.12, -1.31 46.98, -0.62 39.03 C0.07 31.08, 4.48 21.66, 9.61 15.31 C14.73 8.95, 22.59 2.99, 30.13 0.89 C37.67 -1.22, 48.17 1.09, 54.82 2.67 C61.48 4.24, 66.77 7.5, 70.05 10.35 C73.33 13.19, 74.92 19.16, 74.51 19.72 M56.17 0.97 C63.67 3.05, 71.17 10.02, 75.58 16.81 C79.99 23.61, 82.64 33.62, 82.62 41.75 C82.61 49.87, 80.13 59.36, 75.49 65.59 C70.85 71.82, 62.42 76.37, 54.79 79.11 C47.16 81.86, 37.08 83.74, 29.7 82.05 C22.31 80.36, 15.37 74.93, 10.48 68.96 C5.59 63, 1.13 54.37, 0.36 46.27 C-0.4 38.18, 1.82 27.67, 5.87 20.39 C9.92 13.11, 17.74 5.71, 24.68 2.57 C31.61 -0.57, 42.4 1.73, 47.47 1.56 C52.53 1.39, 53.88 1.45, 55.06 1.55 C56.23 1.65, 54.48 1.36, 54.53 2.15" stroke="#000000" stroke-width="1" fill="none"></path></g><g stroke-linecap="round" transform="translate(172 44) rotate(0 41.5 41.5)"><path d="M11.31 12.48 C11.31 12.48, 11.31 12.48, 11.31 12.48 M11.31 12.48 C11.31 12.48, 11.31 12.48, 11.31 12.48 M5.2 23.91 C8.43 22.54, 10.32 18.7, 21.02 8.44 M4.86 25.6 C9.66 20.62, 14.05 16.74, 20.21 7.94 M-0.72 34.77 C8.11 28.8, 16.51 16.39, 30.47 3.43 M0.97 36.8 C7.17 30.27, 12.73 21.33, 31.33 2.46 M0.27 41.46 C14.33 29.76, 22.82 17.4, 34.24 2.47 M1.37 42.43 C11.39 29.96, 20.93 19.59, 35.23 4.14 M1.03 45.25 C16.76 30.42, 31.59 13.58, 40.3 0.94 M1.74 46.23 C13.09 33.42, 24.68 20.33, 42.6 2.05 M1.83 52.18 C16.6 38.88, 31.13 22.51, 44.19 1.84 M3.79 52.27 C18.2 34.74, 32.66 16.71, 45.53 3.19 M5.05 55.86 C17.66 44.17, 28.96 28.39, 50.53 3.15 M3.08 58.46 C18.69 40.55, 33.46 23.56, 50.24 4.64 M5.5 62.15 C19.33 44.57, 35.06 26.24, 55.01 5.43 M4.76 62.05 C16.04 48.75, 26.64 36.97, 54.36 5.8 M9.77 62.73 C19.32 52.16, 30.43 42.07, 59.56 8.29 M8.02 63.91 C21.53 49.82, 33.52 36.01, 59.3 5.72 M13.33 65.85 C26.94 49.92, 42.45 30.21, 65.42 5.13 M12.52 68.02 C23.05 53.27, 34.54 41.04, 64.65 6.52 M15.65 68.79 C32.91 49.25, 49.67 31.81, 65.12 11.91 M14.74 68.69 C32.95 48.43, 52.56 25.26, 67.31 10.96 M19.42 70.86 C35.59 50.75, 54.09 31.31, 68.8 15.37 M18.44 72.33 C29.61 59.15, 38.79 47.54, 69.15 13.35 M18.37 73.69 C41.11 51.81, 60 27.21, 72.18 18.3 M19.77 76.49 C37.28 57.38, 53.24 37.58, 70.16 17.62 M24.41 77.69 C38.26 59.78, 57.24 38.7, 72.33 19.28 M23.59 79.03 C35.56 65.1, 48.1 50.8, 73.52 19.82 M26.13 79.81 C44.75 58.12, 64.63 34.23, 77.56 23.2 M27.3 78.65 C47.01 57.68, 64.83 36.55, 76.7 23.33 M33.41 81.59 C48.61 62.61, 64.27 40.69, 79.85 24.25 M32.62 79.7 C47.52 62.32, 61 45.36, 79.19 26.65 M37.77 79.57 C53.71 60.25, 66.53 45.51, 81.39 27.66 M37.26 79.36 C49.38 67.09, 60 52.98, 82.23 27.86 M42.28 80.37 C58.43 61.64, 72.23 44.63, 83.12 33.71 M42.06 81.4 C57.27 63.53, 73.27 45.2, 82.65 35.43 M47.38 82.13 C58.17 68.56, 73.19 51.74, 83.76 41.22 M46 82.47 C59.38 67.02, 72.22 52.58, 83.13 38.38 M54 79.53 C64.32 65.88, 78.46 53.17, 85.14 43.8 M54.66 77.75 C66.91 64.05, 77.91 52.41, 82.76 45.37 M64.86 75.59 C67.39 67.08, 76.33 61.16, 82.59 50.64 M62.73 75.63 C69.08 67.22, 76.69 59.15, 82.74 52.14 M22.63 77.62 C22.63 77.62, 22.63 77.62, 22.63 77.62 M22.63 77.62 C22.63 77.62, 22.63 77.62, 22.63 77.62 M31.72 80.64 C22.41 71.03, 13.19 67.52, 3.72 59.07 M31.47 79.96 C23.8 71.97, 16.97 67.14, 5.43 57.64 M38.81 80.45 C27.77 71.33, 17.36 61.78, 4.8 50.32 M37 80.69 C27.49 70.51, 16.18 62.64, 5.35 51.72 M45.98 82.03 C35.08 75.24, 29.66 68.02, 3.26 45.55 M45.83 81.51 C34.67 71.46, 24.2 62.94, 4.99 46.18 M47.98 80.26 C33.31 64.32, 13.39 50.25, 4.45 40.97 M48.02 79.92 C35.43 68.26, 21.94 56.39, 3.16 40.84 M52.06 77.1 C40.89 69.04, 31.3 59.61, 1.92 32.22 M52.96 77.81 C39.24 67.1, 27.92 56.33, 2.92 32.99 M56.91 73.3 C39.53 59.33, 20.13 41.61, 6.21 29.08 M55.54 75.87 C38.08 59.09, 19.68 43.56, 3.65 30.89 M59.43 73.8 C40.46 57.61, 22.71 40.6, 5.27 24.45 M60.18 73.85 C40.29 54.79, 18.18 37.72, 6.7 25.45 M65.43 73.29 C49.68 59.1, 37.35 47.19, 6.01 21.78 M64.81 72.74 C41.52 51.66, 18 31.12, 8.22 22.45 M70.24 71.62 C49.37 51.45, 28.97 37.31, 10.81 18.52 M70.64 71.04 C57.1 59.29, 44.55 48.79, 8.88 18.7 M70.57 69.44 C57.77 57.46, 46.03 45.58, 9.5 13.68 M71.38 67.1 C51.38 48.72, 28.29 30.62, 11.11 14.41 M73.37 62.87 C55.35 48.1, 40.51 34.8, 14.84 10.01 M73.3 64.51 C50.67 43.12, 26.4 23.15, 13.9 10.06 M75.07 62.41 C52.54 39.5, 30.66 22.27, 15.83 10.08 M75.69 59.85 C58.51 46.75, 42.79 32.09, 17.23 9.27 M78.77 57.13 C57.87 37.22, 32.88 16.47, 22.4 8.57 M79.34 57.52 C55.16 37.06, 32.4 17.66, 20.12 7.8 M80.52 52.16 C61.01 36.29, 39.15 19.16, 23.42 5.04 M80.08 54.07 C58.87 33.98, 36.18 14.28, 23.84 5.13 M82.34 48.16 C67.08 39.67, 53.02 25.35, 27 2.71 M83.02 50.37 C71.88 39.73, 60.64 30, 27.46 1.92 M83.42 44.19 C67.83 30.46, 51.75 19.63, 31.68 -0.6 M81 45.25 C66.46 32.45, 52.33 19.83, 32.32 1.75 M79.45 39.17 C67.83 24.58, 53.54 13.58, 39.46 -1.08 M81.19 37.69 C70.9 30.5, 63.29 22.01, 38.27 1.26 M78.55 31.37 C70.34 25.16, 65.35 18.56, 41.52 0.72 M80.26 31.12 C68.13 22.2, 54.8 9.83, 42.68 -1.49 M78.55 26.65 C73.25 20.89, 65.1 14, 52.3 3.14 M78.91 26.3 C70.26 17.07, 60.62 8.64, 49.75 1.01 M64.94 8.73 C63.17 7.48, 62.98 6.21, 58.91 2.84 M64.98 8.62 C63.88 7.54, 62.96 6.44, 59 3.27" stroke="#fa5252" stroke-width="0.5" fill="none"></path><path d="M40.27 0.69 C47.63 -0.25, 56.78 2.25, 63.24 6.54 C69.71 10.82, 75.91 19.11, 79.08 26.4 C82.24 33.7, 83.93 42.69, 82.24 50.3 C80.55 57.9, 74.95 66.8, 68.95 72.03 C62.94 77.27, 53.88 80.75, 46.22 81.73 C38.55 82.71, 30.04 81.52, 22.98 77.92 C15.92 74.33, 7.57 67.2, 3.86 60.19 C0.14 53.17, -0.49 43.73, 0.7 35.84 C1.89 27.95, 5.77 18.51, 10.99 12.85 C16.22 7.2, 26.89 4.14, 32.05 1.9 C37.2 -0.34, 39.68 -0.4, 41.9 -0.57 C44.12 -0.75, 45.45 -0.01, 45.39 0.87 M35.42 1.58 C42.92 -0.03, 53.43 1.84, 60.49 4.95 C67.55 8.07, 74.24 13.23, 77.78 20.26 C81.32 27.28, 82.61 39.05, 81.74 47.1 C80.88 55.16, 77.92 62.67, 72.6 68.59 C67.27 74.52, 57.3 80.89, 49.82 82.66 C42.33 84.42, 34.76 82.32, 27.68 79.17 C20.6 76.03, 12.05 70.19, 7.34 63.79 C2.62 57.4, -0.76 48.9, -0.6 40.8 C-0.44 32.71, 3.66 21.57, 8.3 15.23 C12.93 8.89, 22.78 5.38, 27.21 2.77 C31.65 0.15, 33.71 -0.03, 34.9 -0.45 C36.09 -0.88, 34.39 -0.39, 34.35 0.23" stroke="#000000" stroke-width="1" fill="none"></path></g><g stroke-linecap="round" transform="translate(173 146) rotate(0 41.5 41.5)"><path d="M38.09 -0.43 C45.61 -1.68, 55.25 1.75, 62.18 5.96 C69.11 10.18, 76.42 17.71, 79.68 24.86 C82.94 32.02, 83.18 41.19, 81.76 48.9 C80.35 56.62, 76.82 65.45, 71.18 71.14 C65.55 76.83, 55.97 81.88, 47.95 83.06 C39.93 84.24, 30.25 81.65, 23.08 78.24 C15.9 74.82, 8.57 69.18, 4.9 62.59 C1.24 55.99, 0.34 46.73, 1.11 38.69 C1.87 30.64, 4.58 20.42, 9.52 14.29 C14.45 8.16, 25.08 4.3, 30.71 1.9 C36.35 -0.51, 40.47 -0.09, 43.31 -0.13 C46.15 -0.16, 47.72 0.88, 47.76 1.68 M33.31 2.39 C40.2 0.46, 48.95 1.7, 56.31 4.52 C63.68 7.34, 73.16 12.83, 77.5 19.32 C81.85 25.81, 83.13 35.74, 82.37 43.47 C81.62 51.19, 77.55 59.45, 72.96 65.66 C68.37 71.86, 62.31 77.9, 54.84 80.69 C47.37 83.48, 35.62 84.61, 28.13 82.39 C20.64 80.18, 14.75 73.96, 9.91 67.38 C5.08 60.81, -0.55 51.17, -0.89 42.95 C-1.22 34.73, 3.46 24.86, 7.9 18.04 C12.34 11.23, 21.53 4.98, 25.73 2.06 C29.93 -0.85, 31.95 0.36, 33.09 0.56 C34.24 0.76, 32.78 2.65, 32.6 3.28" stroke="#000000" stroke-width="1" fill="none"></path></g><g stroke-linecap="round" transform="translate(171 245) rotate(0 41.5 41.5)"><path d="M28.53 2.45 C35.27 -0.58, 44.68 -0.06, 52.09 2.21 C59.49 4.47, 67.88 10.04, 72.97 16.02 C78.06 22.01, 81.88 30.26, 82.63 38.12 C83.39 45.98, 81.46 56.43, 77.51 63.2 C73.55 69.97, 66.32 75.71, 58.93 78.76 C51.53 81.81, 41.03 82.83, 33.12 81.51 C25.21 80.18, 16.99 76.34, 11.48 70.79 C5.97 65.24, 1.41 56.12, 0.07 48.2 C-1.26 40.27, -0.19 30.33, 3.49 23.23 C7.17 16.13, 16.34 9.63, 22.16 5.61 C27.98 1.59, 33.69 -0.4, 38.39 -0.9 C43.09 -1.4, 50.26 1.63, 50.35 2.6 M26.28 2.57 C33.29 -0.65, 44.04 -0.92, 52 1.16 C59.97 3.25, 68.84 9.07, 74.06 15.1 C79.28 21.13, 83.02 29.61, 83.32 37.35 C83.62 45.08, 79.9 54.4, 75.84 61.52 C71.78 68.64, 65.86 76.55, 58.95 80.04 C52.05 83.53, 42.11 84.01, 34.41 82.46 C26.72 80.91, 18.5 76.36, 12.79 70.75 C7.07 65.15, 1.76 56.94, 0.1 48.84 C-1.55 40.74, -0.86 29.49, 2.83 22.15 C6.53 14.82, 18.27 8.23, 22.28 4.83 C26.28 1.42, 26.08 1.78, 26.86 1.71 C27.64 1.64, 26.59 3.85, 26.95 4.42" stroke="#000000" stroke-width="1" fill="none"></path></g><g stroke-linecap="round" transform="translate(282 44) rotate(0 41.5 41.5)"><path d="M27.73 1.35 C34.67 -1.48, 45.93 0.17, 53.51 2.57 C61.08 4.97, 68.34 9.8, 73.17 15.75 C78.01 21.7, 81.84 30.4, 82.53 38.28 C83.22 46.16, 81.55 56.3, 77.34 63.03 C73.12 69.75, 64.51 75.48, 57.26 78.63 C50.02 81.79, 41.6 83.48, 33.87 81.96 C26.15 80.44, 16.59 75.33, 10.91 69.51 C5.23 63.68, 1.02 54.74, -0.23 47 C-1.47 39.27, -0.22 29.99, 3.42 23.1 C7.06 16.22, 17.26 9.3, 21.63 5.69 C26 2.07, 28.15 1.9, 29.64 1.39 C31.13 0.89, 30.37 1.79, 30.58 2.67 M42.28 -0.58 C49.82 -1.48, 58.43 1.85, 64.59 6.42 C70.74 10.98, 76.27 19.22, 79.21 26.8 C82.15 34.39, 84.05 44.09, 82.22 51.91 C80.39 59.74, 74.52 68.5, 68.24 73.74 C61.96 78.98, 52.22 82.68, 44.54 83.34 C36.86 84.01, 29.12 81.73, 22.16 77.73 C15.19 73.72, 6.23 66.7, 2.77 59.3 C-0.7 51.9, -0.32 41.09, 1.37 33.3 C3.05 25.51, 7.34 18.05, 12.87 12.55 C18.4 7.06, 30.1 2.45, 34.55 0.32 C39 -1.8, 38.58 -0.26, 39.56 -0.2 C40.54 -0.13, 40.2 0.02, 40.44 0.72" stroke="#000000" stroke-width="1" fill="none"></path></g><g stroke-linecap="round" transform="translate(283 146) rotate(0 41.5 41.5)"><path d="M32.24 0.83 C39.47 -1.24, 50.54 0.83, 58.09 3.84 C65.65 6.86, 73.4 12.21, 77.57 18.91 C81.73 25.62, 83.61 36.17, 83.08 44.09 C82.56 52.01, 79.22 60.37, 74.41 66.43 C69.61 72.49, 62.02 78.11, 54.24 80.44 C46.47 82.76, 35.35 82.55, 27.77 80.36 C20.18 78.17, 13.21 73.63, 8.75 67.32 C4.29 61, 1.39 50.63, 0.99 42.5 C0.6 34.36, 2.12 25, 6.4 18.51 C10.68 12.01, 21.49 6.54, 26.66 3.53 C31.84 0.52, 34.76 0.77, 37.45 0.47 C40.14 0.18, 42.63 1.17, 42.81 1.74 M58.04 1.88 C65.55 4.14, 73.3 12.93, 77.49 19.61 C81.68 26.3, 83.57 34.47, 83.16 41.99 C82.76 49.51, 79.99 58.1, 75.05 64.72 C70.11 71.35, 61.17 79.12, 53.54 81.73 C45.91 84.34, 36.47 82.59, 29.27 80.4 C22.06 78.22, 15.05 74.87, 10.29 68.63 C5.53 62.4, 1.46 50.93, 0.73 43 C0 35.07, 2.02 27.66, 5.9 21.05 C9.78 14.45, 16.85 6.63, 24.02 3.38 C31.18 0.13, 43.53 1.64, 48.9 1.55 C54.26 1.47, 54.72 2.75, 56.21 2.87 C57.7 3, 58.12 1.74, 57.82 2.31" stroke="#000000" stroke-width="1" fill="none"></path></g><g stroke-linecap="round" transform="translate(281 245) rotate(0 41.5 41.5)"><path d="M49.72 -0.15 C57.18 0.53, 66.45 6.07, 72.01 11.91 C77.57 17.74, 82.05 26.8, 83.07 34.87 C84.08 42.95, 81.68 53.06, 78.11 60.35 C74.54 67.64, 68.63 74.9, 61.65 78.59 C54.67 82.28, 44.27 83.47, 36.23 82.48 C28.19 81.49, 19.15 77.92, 13.41 72.66 C7.67 67.39, 3.48 58.74, 1.79 50.89 C0.11 43.04, 0.48 32.78, 3.3 25.54 C6.12 18.3, 12.07 11.79, 18.71 7.45 C25.34 3.11, 37.6 0.38, 43.09 -0.51 C48.58 -1.41, 49.44 1.47, 51.64 2.06 C53.84 2.65, 56.2 2.56, 56.29 3.02 M25.96 2.42 C32.54 -0.66, 42.57 -0.46, 50.26 1.47 C57.95 3.41, 66.88 8.45, 72.11 14.03 C77.33 19.61, 80.8 27.08, 81.61 34.95 C82.43 42.83, 80.42 53.93, 77.01 61.29 C73.6 68.65, 67.97 75.39, 61.14 79.12 C54.31 82.85, 43.94 84.94, 36.02 83.67 C28.09 82.4, 19.32 77.28, 13.59 71.48 C7.87 65.67, 3.6 56.38, 1.68 48.84 C-0.24 41.3, -0.83 33.48, 2.07 26.24 C4.98 19.01, 15.27 9.47, 19.11 5.44 C22.95 1.41, 23.73 2.33, 25.1 2.06 C26.47 1.79, 27.16 2.94, 27.34 3.81" stroke="#000000" stroke-width="1" fill="none"></path></g><g stroke-linecap="round" transform="translate(394 44) rotate(0 41.5 41.5)"><path d="M59.84 3.8 C66.89 6.8, 74.35 15.26, 78.18 22.36 C82.01 29.45, 83.72 38.66, 82.83 46.36 C81.94 54.07, 78.12 62.54, 72.84 68.58 C67.55 74.62, 58.95 80.86, 51.12 82.6 C43.3 84.35, 33.32 82.07, 25.88 79.06 C18.45 76.05, 10.98 70.95, 6.51 64.54 C2.04 58.12, -1.26 48.53, -0.93 40.58 C-0.59 32.63, 3.6 23.4, 8.52 16.82 C13.45 10.24, 21.08 3.64, 28.61 1.1 C36.14 -1.44, 47.59 0.5, 53.71 1.59 C59.83 2.67, 62.71 5.86, 65.31 7.59 C67.9 9.33, 69.5 11.54, 69.28 11.99 M48.26 -0.51 C55.61 0.25, 64.08 6.11, 69.94 11.95 C75.8 17.8, 82.18 26.6, 83.42 34.55 C84.66 42.51, 80.92 52.67, 77.38 59.67 C73.84 66.67, 68.7 72.88, 62.21 76.54 C55.71 80.2, 46.41 82.19, 38.42 81.62 C30.43 81.04, 20.43 77.91, 14.26 73.09 C8.09 68.26, 3.49 60.61, 1.4 52.65 C-0.68 44.69, -1.29 32.96, 1.75 25.32 C4.8 17.67, 12.79 10.96, 19.67 6.76 C26.55 2.57, 38.24 1.38, 43.03 0.16 C47.83 -1.06, 47.43 -0.92, 48.45 -0.55 C49.47 -0.19, 49 1.68, 49.15 2.36" stroke="#000000" stroke-width="1" fill="none"></path></g><g stroke-linecap="round" transform="translate(395 146) rotate(0 41.5 41.5)"><path d="M53.48 2.19 C60.91 4.08, 69.91 10.57, 74.72 16.78 C79.53 22.99, 81.95 31.61, 82.35 39.44 C82.74 47.26, 81.31 56.9, 77.09 63.72 C72.88 70.55, 64.55 77.46, 57.05 80.38 C49.54 83.3, 39.82 82.96, 32.06 81.26 C24.31 79.57, 15.65 75.74, 10.53 70.22 C5.4 64.71, 2.37 56.17, 1.32 48.17 C0.28 40.16, 0.83 29.32, 4.26 22.18 C7.68 15.04, 14.7 9, 21.88 5.34 C29.05 1.67, 41.44 0.52, 47.28 0.18 C53.13 -0.16, 54.79 2.4, 56.95 3.27 C59.1 4.15, 60.57 4.75, 60.19 5.45 M37 1.55 C44.49 0.14, 56.46 2.01, 63.4 5.8 C70.33 9.59, 75.67 17.3, 78.58 24.29 C81.49 31.29, 82.03 40.07, 80.86 47.78 C79.69 55.5, 77.11 64.6, 71.57 70.59 C66.03 76.58, 55.37 82.22, 47.63 83.73 C39.88 85.24, 32.3 83.33, 25.11 79.67 C17.93 76, 8.43 68.93, 4.5 61.74 C0.57 54.54, 0.63 44.56, 1.53 36.52 C2.43 28.49, 4.87 19.48, 9.91 13.54 C14.95 7.6, 27.08 2.87, 31.76 0.88 C36.44 -1.11, 37.16 1.72, 37.99 1.61 C38.82 1.5, 36.73 -0.42, 36.73 0.23" stroke="#000000" stroke-width="1" fill="none"></path></g><g stroke-linecap="round" transform="translate(393 245) rotate(0 41.5 41.5)"><path d="M57.83 4.34 C64.7 7.02, 72.32 14.41, 76.45 21.06 C80.58 27.71, 83.01 36.39, 82.59 44.24 C82.17 52.1, 78.86 62.1, 73.95 68.19 C69.05 74.28, 60.94 78.86, 53.15 80.81 C45.37 82.75, 34.81 82.33, 27.22 79.87 C19.62 77.41, 12.19 72.36, 7.59 66.06 C2.99 59.77, -0.24 50.11, -0.4 42.09 C-0.57 34.07, 1.91 24.46, 6.6 17.96 C11.29 11.46, 20.23 6.01, 27.74 3.08 C35.24 0.16, 45.67 -0.23, 51.64 0.41 C57.61 1.05, 61.13 5.31, 63.55 6.92 C65.98 8.53, 66.77 9.76, 66.21 10.07 M50.6 0.8 C58.38 1.97, 67.69 8.14, 73.12 13.99 C78.55 19.84, 82.61 28.19, 83.19 35.9 C83.76 43.61, 80.38 53, 76.56 60.26 C72.74 67.51, 67.06 75.68, 60.27 79.42 C53.48 83.17, 43.59 83.98, 35.84 82.71 C28.1 81.43, 19.73 77.18, 13.82 71.78 C7.9 66.37, 2.29 58.32, 0.36 50.27 C-1.57 42.22, -1.22 30.92, 2.22 23.47 C5.66 16.02, 14.14 9.56, 21.02 5.56 C27.9 1.55, 38.63 -0.03, 43.5 -0.54 C48.37 -1.06, 48.99 2.23, 50.24 2.46 C51.49 2.68, 50.96 0.22, 51.03 0.81" stroke="#000000" stroke-width="1" fill="none"></path></g><g transform="translate(208.57434678077698 453.05784237384796) rotate(0 48.5 12.5)"><text x="0" y="18" font-family="Virgil, Segoe UI Emoji" font-size="20px" fill="#000000" text-anchor="start" style="white-space: pre;" direction="ltr">Score : 12</text></g></svg>